<svg width="777" height="674" viewBox="0 0 777 674" fill="none" xmlns="http://www.w3.org/2000/svg">
<path d="M646.905 671.754C561.175 681.654 487.692 646.744 453.557 569.631L356.882 351.056L207.311 350.274V599.33L325.092 601.154V661.594H1.71508V600.893L128.877 600.112V61.6198L0.412109 61.0988L3.01794 0.397949L547.364 4.56624C651.074 5.3478 711.528 87.1506 706.838 182.5C702.929 259.093 659.934 320.054 579.416 331.517C529.124 338.811 478.051 339.332 419.16 340.635L510.623 548.529C523.652 577.967 562.478 599.33 586.451 602.977C619.284 607.927 669.836 598.548 679.738 559.992C694.851 501.636 689.379 441.456 689.9 377.108L776.412 375.284L774.588 539.671C773.806 613.919 722.473 663.417 646.645 672.275L646.905 671.754ZM628.144 177.811C627.101 111.379 580.979 64.225 515.574 63.704L207.311 60.8382L207.832 298.952L518.962 296.347C585.409 295.826 629.186 245.025 627.883 177.811H628.144Z" fill="black" stroke="black" stroke-width="0.790053" stroke-miterlimit="10"/>
</svg>
