<svg width="221" height="221" viewBox="0 0 221 221" fill="none" xmlns="http://www.w3.org/2000/svg">
<path d="M28.7364 125.477C28.6138 125.477 28.5525 125.048 28.5525 124.649C28.5525 124.251 28.6138 123.883 28.7364 123.883C30.1765 123.883 32.6279 123.669 32.6585 122.443C32.7198 119.379 32.7504 116.284 32.7504 113.22C32.7504 110.156 32.7198 107.061 32.6585 103.997C32.6279 102.771 30.1765 102.557 28.7364 102.557C28.6138 102.557 28.5525 102.189 28.5525 101.791C28.5525 101.392 28.6138 100.963 28.7364 100.963C30.6055 100.963 32.4747 101.086 34.3438 101.086H35.4775C36.7951 101.025 38.1127 100.963 39.4303 100.963C44.8539 100.963 48.1019 103.323 48.1019 107.275C48.1019 111.32 45.3748 113.68 41.9429 114.446L49.4808 123.27C49.9097 123.761 50.7984 123.883 52.1772 123.883C52.2998 123.883 52.3611 124.251 52.3611 124.649C52.3611 125.048 52.2998 125.477 52.1772 125.477C50.7984 125.477 49.4501 125.354 48.0712 125.354C46.294 125.354 44.8232 125.477 43.2605 125.477C43.1379 125.477 43.0767 125.078 43.0767 124.68C43.0767 124.282 43.1379 123.883 43.2605 123.883C44.333 123.883 45.0071 123.822 45.0071 123.454C45.0071 123.362 44.9764 123.301 44.8539 123.117L39.8593 116.56C38.8481 115.212 37.6224 114.537 35.9678 114.476C35.9678 117.142 35.9984 119.808 36.0597 122.443C36.0904 123.669 38.5417 123.883 39.9819 123.883C40.1044 123.883 40.1657 124.251 40.1657 124.649C40.1657 125.048 40.1044 125.477 39.9819 125.477C38.1434 125.477 36.2436 125.354 34.4051 125.354C32.5053 125.354 30.6362 125.477 28.7364 125.477ZM39.032 112.668C41.9123 112.668 44.4862 110.677 44.4862 107.858C44.4862 105.161 42.8315 103.108 37.408 103.108C36.6726 103.108 36.0597 103.353 36.0597 103.997C35.9984 106.724 35.9678 109.482 35.9678 112.239C36.8564 112.576 37.6531 112.668 39.032 112.668ZM53.6171 125.477C53.4946 125.477 53.4333 125.048 53.4333 124.649C53.4333 124.251 53.4946 123.883 53.6171 123.883C55.0573 123.883 57.5086 123.669 57.5393 122.443C57.6006 119.379 57.6312 116.284 57.6312 113.22C57.6312 110.156 57.6006 107.061 57.5393 103.997C57.5086 102.771 55.0573 102.557 53.6171 102.557C53.4946 102.557 53.4333 102.189 53.4333 101.791C53.4333 101.392 53.4946 100.963 53.6171 100.963C55.4863 100.963 57.3554 101.086 59.2246 101.086H59.4697C61.3082 101.055 63.0854 100.963 64.8626 100.963H73.7793C73.8713 102.373 74.147 105.192 74.8824 108.624C74.9131 108.808 74.5147 108.899 74.0858 108.899C73.6568 108.899 73.2278 108.808 73.2278 108.624C72.952 104.058 69.4895 102.649 65.7512 102.649C64.0966 102.649 61.0937 102.526 60.9405 103.997C60.8792 106.54 60.8486 109.114 60.8486 111.657H64.9239C68.6315 111.657 69.2444 110.064 69.2444 108.685C69.2444 108.562 69.6121 108.501 70.0104 108.501C70.4088 108.501 70.8377 108.562 70.8377 108.685C70.6539 110.156 70.562 111.565 70.562 113.036C70.562 114.507 70.6539 116.008 70.8377 117.724C70.8377 117.847 70.4394 117.908 70.0411 117.908C69.6427 117.908 69.2444 117.847 69.2444 117.724C69.2444 115.395 68.3251 113.71 64.9239 113.71H60.8486C60.8486 116.56 60.8792 119.501 60.9405 122.443C61.0937 123.914 64.0966 123.791 65.7512 123.791C69.3669 123.791 72.3698 122.474 73.2278 117.816C73.2278 117.632 73.6568 117.54 74.0858 117.54C74.5147 117.54 74.9131 117.632 74.8824 117.816C74.3309 121.156 73.9019 124.067 73.7793 125.477C71.7876 125.477 69.8266 125.415 67.8349 125.415C66.3028 125.415 64.2192 125.415 59.531 125.385C57.3861 125.385 55.5169 125.477 53.6171 125.477ZM78.1987 125.477C78.0761 125.477 78.0148 125.048 78.0148 124.649C78.0148 124.251 78.0761 123.883 78.1987 123.883C79.6388 123.883 82.0902 123.669 82.1208 122.443C82.1821 119.379 82.2127 116.284 82.2127 113.22C82.2127 110.156 82.1821 107.061 82.1208 103.997C82.0902 102.771 79.6388 102.557 78.1987 102.557C78.0761 102.557 78.0148 102.189 78.0148 101.791C78.0148 101.392 78.0761 100.963 78.1987 100.963C80.0678 100.963 81.937 101.086 83.8061 101.086H84.0819C85.7059 101.055 87.0235 100.963 89.291 100.963C94.163 100.963 96.8901 102.802 96.8901 106.08C96.8901 108.961 95.1129 111.657 91.7116 112.515V112.576C93.7646 112.791 98.3609 113.342 98.3609 118.337C98.3609 122.841 94.2855 125.477 89.291 125.477C87.0235 125.477 85.6752 125.385 84.0512 125.354H83.8674C81.9676 125.354 80.0985 125.477 78.1987 125.477ZM85.4301 111.627H86.8703C91.7116 111.627 93.3357 109.696 93.3357 107.092C93.3357 105.039 92.6003 102.894 87.2686 102.894C86.1655 102.894 85.522 103.384 85.522 103.935C85.4608 106.54 85.4301 109.114 85.4301 111.627ZM88.8926 123.546C93.5195 123.546 94.6226 120.451 94.6226 118.674C94.6226 114.691 90.8537 113.68 86.7477 113.68H85.4301C85.4301 116.59 85.522 119.532 85.522 122.443C85.522 123.27 86.5945 123.546 88.8926 123.546ZM113.703 125.936C107.605 125.936 104.541 122.137 104.51 116.284V103.997C104.387 102.771 101.997 102.557 100.557 102.557C100.435 102.557 100.373 102.189 100.373 101.791C100.373 101.392 100.435 100.963 100.557 100.963C102.457 100.963 104.387 101.086 106.165 101.086C108.064 101.086 109.964 100.963 111.864 100.963C111.987 100.963 112.048 101.392 112.048 101.791C112.048 102.189 111.987 102.557 111.864 102.557C110.424 102.557 108.034 102.771 107.942 103.997V112.699C107.942 119.593 108.739 123.424 114.193 123.424C118.728 123.424 120.413 120.145 120.413 115.365V103.997C120.29 102.771 117.9 102.557 116.46 102.557C116.338 102.557 116.276 102.189 116.276 101.791C116.276 101.392 116.338 100.963 116.46 100.963C118.176 100.963 119.862 101.086 121.577 101.086C123.293 101.086 125.04 100.963 126.756 100.963C126.878 100.963 126.94 101.392 126.94 101.791C126.94 102.189 126.878 102.557 126.756 102.557C125.316 102.557 122.926 102.771 122.834 103.997V115.395C122.834 122.014 120.015 125.936 113.703 125.936ZM129.277 125.477C129.154 125.477 129.093 125.048 129.093 124.649C129.093 124.251 129.154 123.883 129.277 123.883C130.717 123.883 133.168 123.669 133.199 122.443C133.26 119.379 133.291 116.284 133.291 113.22C133.291 110.156 133.26 107.061 133.199 103.997C133.168 102.771 130.717 102.557 129.277 102.557C129.154 102.557 129.093 102.189 129.093 101.791C129.093 101.392 129.154 100.963 129.277 100.963C131.146 100.963 133.015 101.086 134.884 101.086C136.753 101.086 138.653 100.963 140.522 100.963C140.645 100.963 140.706 101.392 140.706 101.791C140.706 102.189 140.645 102.557 140.522 102.557C139.082 102.557 136.631 102.771 136.6 103.997C136.539 107.061 136.508 110.156 136.508 113.22C136.508 116.284 136.539 119.379 136.6 122.443C136.631 123.669 139.082 123.883 140.522 123.883C140.645 123.883 140.706 124.251 140.706 124.649C140.706 125.048 140.645 125.477 140.522 125.477C138.684 125.477 136.784 125.354 134.946 125.354C133.046 125.354 131.177 125.477 129.277 125.477ZM157.54 125.507C156.621 125.507 155.671 125.507 154.691 125.477C153.771 125.477 151.473 125.354 149.298 125.354C147.766 125.354 144.579 125.477 143.445 125.477C143.322 125.477 143.261 125.048 143.261 124.649C143.261 124.251 143.322 123.883 143.445 123.883C144.885 123.883 147.337 123.669 147.367 122.443C147.428 119.379 147.459 116.284 147.459 113.22C147.459 110.156 147.428 107.061 147.367 103.997C147.337 102.771 144.885 102.557 143.445 102.557C143.322 102.557 143.261 102.189 143.261 101.791C143.261 101.392 143.322 100.963 143.445 100.963C145.314 100.963 147.183 101.086 149.052 101.086C150.922 101.086 152.821 100.963 154.691 100.963C154.813 100.963 154.874 101.392 154.874 101.791C154.874 102.189 154.813 102.557 154.691 102.557C153.25 102.557 150.799 102.771 150.768 103.997C150.707 107.061 150.676 110.156 150.676 113.22C150.676 116.284 150.707 119.379 150.768 122.443C150.768 123.914 153.924 123.791 155.579 123.791C158.888 123.791 161.891 122.474 162.749 117.816C162.749 117.632 163.178 117.54 163.607 117.54C164.036 117.54 164.435 117.632 164.404 117.816C163.852 121.156 163.423 124.067 163.301 125.477C161.309 125.477 159.44 125.507 157.54 125.507ZM166.65 125.477C166.528 125.477 166.466 125.048 166.466 124.649C166.466 124.251 166.528 123.883 166.65 123.883C168.09 123.883 170.542 123.669 170.572 122.443C170.634 119.379 170.664 116.284 170.664 113.22C170.664 110.156 170.634 107.061 170.572 103.997C170.542 102.771 168.09 102.557 166.65 102.557C166.528 102.557 166.466 102.189 166.466 101.791C166.466 101.392 166.528 100.963 166.65 100.963C168.519 100.963 170.388 101.086 172.258 101.086C174.127 101.086 176.026 100.963 177.896 100.963C185.801 100.963 190.796 105.682 190.796 113.189C190.796 120.053 186.23 125.477 178.662 125.477C176.639 125.477 172.962 125.354 172.319 125.354C170.419 125.354 168.55 125.477 166.65 125.477ZM175.414 123.454C182.431 123.454 187.119 121.432 187.119 113.189C187.119 104.947 182.431 102.986 175.414 102.986C174.525 102.986 173.973 103.445 173.973 103.997C173.912 107.061 173.882 110.156 173.882 113.22C173.882 116.284 173.912 119.379 173.973 122.443C173.973 123.056 174.617 123.454 175.414 123.454Z" fill="#F4EEE5"/>
<circle cx="110.055" cy="111.857" r="90.9442" stroke="#F4EEE5" stroke-width="1.80266"/>
<path d="M40.4231 140.732C41.5535 140.177 41.5138 139.116 41.0832 138.1C40.6198 137.007 39.7451 136.482 38.9604 136.815C38.2529 137.115 38.1969 137.806 38.3313 139.054L38.5293 140.882C38.69 142.407 38.3181 143.642 36.9675 144.214C35.3081 144.917 33.7547 143.937 32.9261 141.982C32.0212 139.847 32.28 138.022 34.146 137.019L34.7075 138.344C33.6003 139.026 33.4526 140.181 34.0031 141.48C34.4992 142.65 35.3571 143.243 36.2575 142.861C37.0937 142.507 37.2927 141.831 37.1564 140.614L36.9152 138.577C36.756 137.127 37.0725 135.976 38.2945 135.458C39.8124 134.815 41.3262 135.63 42.1602 137.598C43.0487 139.695 42.6424 141.278 40.9845 142.057L40.4231 140.732ZM44.2176 142.899L44.9305 144.133L39.8379 147.075C38.35 147.935 37.7164 149.156 38.5412 150.584C39.3659 152.011 40.7403 152.072 42.2282 151.212L47.3209 148.27L48.0268 149.491L42.9342 152.434C40.781 153.678 38.7729 153.386 37.5008 151.185C36.2288 148.983 36.9718 147.085 39.125 145.841L44.2176 142.899ZM41.2994 157.148L49.0772 151.219L51.4146 154.286C52.6172 155.864 52.5423 157.379 51.0979 158.48C50.1423 159.208 49.2904 159.243 48.3356 158.635C48.6512 159.326 48.5084 160.014 47.9291 160.614L46.6847 161.931C46.3577 162.286 46.0726 162.626 45.8774 163.039L45.8218 163.081L44.8903 161.859C45.0749 161.525 45.3241 161.229 45.8563 160.683L46.7769 159.771C47.4118 159.129 47.5043 158.443 46.9877 157.766L45.4548 155.755L42.1548 158.27L41.2994 157.148ZM47.6706 156.841C48.3143 157.686 49.1478 158.157 50.1812 157.369C51.1589 156.624 51.018 155.748 50.349 154.87L48.977 153.07L46.3326 155.086L47.6706 156.841ZM49.5947 167.28L54.2092 158.029L55.2876 159.124L51.2873 166.849L59.0619 162.956L60.1403 164.051L50.8299 168.534L49.5947 167.28ZM61.3893 165.25L62.4657 166.162L56.1429 173.623L55.0665 172.711L61.3893 165.25ZM60.9037 177.234L63.7892 167.306L65.046 168.191L62.4918 176.506L69.4449 171.286L70.7017 172.17L62.3433 178.247L60.9037 177.234ZM75.7022 174.625C78.2824 175.962 78.8066 178.625 77.4506 181.242C76.0432 183.959 73.5654 185.067 70.9852 183.73C68.3926 182.387 67.8808 179.731 69.2882 177.014C70.6442 174.396 73.1096 173.282 75.7022 174.625ZM75.1495 175.692C73.5369 174.857 71.8035 175.469 70.6339 177.727C69.445 180.022 69.9445 181.791 71.5571 182.626C73.1574 183.455 74.9031 182.849 76.092 180.554C77.2616 178.297 76.7497 176.521 75.1495 175.692ZM77.917 186.919L81.1833 177.701L84.8177 178.989C86.6876 179.651 87.454 180.96 86.8474 182.672C86.4461 183.805 85.7519 184.3 84.6205 184.314C85.2624 184.719 85.5197 185.374 85.3629 186.193L85.0422 187.976C84.9625 188.452 84.9101 188.893 84.9723 189.345L84.949 189.41L83.5004 188.897C83.4722 188.517 83.5192 188.133 83.6658 187.385L83.9371 186.117C84.1172 185.232 83.8196 184.608 83.0163 184.324L80.6329 183.479L79.247 187.39L77.917 186.919ZM83.0821 183.176C84.0829 183.531 85.0385 183.469 85.4724 182.244C85.883 181.086 85.2856 180.429 84.2453 180.061L82.112 179.305L81.0015 182.439L83.0821 183.176ZM94.7741 184.519C94.9808 183.276 94.0953 182.692 93.0183 182.45C91.8596 182.191 90.9239 182.597 90.7376 183.428C90.5697 184.178 91.0993 184.626 92.1923 185.243L93.794 186.146C95.1277 186.903 95.9155 187.924 95.5948 189.356C95.2009 191.114 93.4995 191.807 91.4273 191.343C89.1643 190.836 87.8314 189.564 88.1017 187.462L89.5059 187.777C89.4158 189.074 90.2691 189.866 91.646 190.175C92.8866 190.453 93.8676 190.1 94.0814 189.145C94.2799 188.259 93.8459 187.704 92.7771 187.107L90.9801 186.117C89.7084 185.403 88.9569 184.476 89.247 183.18C89.6073 181.572 91.1512 180.815 93.237 181.282C95.4592 181.78 96.5102 183.032 96.1783 184.833L94.7741 184.519ZM104.841 183.281L106.473 183.367L109.558 193.323L108.065 193.244L107.178 190.175L103.425 189.977L102.219 192.936L100.741 192.858L104.841 183.281ZM103.89 188.855L106.833 189.01L105.591 184.705L103.89 188.855ZM117.172 185.767C117.005 184.519 115.987 184.219 114.887 184.304C113.703 184.396 112.927 185.058 112.993 185.908C113.052 186.674 113.69 186.947 114.916 187.217L116.712 187.61C118.209 187.943 119.262 188.688 119.375 190.15C119.514 191.947 118.09 193.108 115.973 193.272C113.661 193.451 112.014 192.626 111.656 190.538L113.091 190.427C113.385 191.693 114.433 192.2 115.84 192.091C117.107 191.993 117.942 191.368 117.866 190.393C117.796 189.488 117.218 189.084 116.021 188.826L114.013 188.407C112.588 188.097 111.598 187.431 111.495 186.108C111.368 184.464 112.622 183.288 114.753 183.123C117.024 182.948 118.396 183.836 118.606 185.656L117.172 185.767ZM126.426 184.304C126.107 183.086 125.059 182.914 123.978 183.134C122.814 183.371 122.126 184.124 122.296 184.959C122.45 185.712 123.116 185.904 124.366 186.021L126.197 186.189C127.723 186.335 128.86 186.945 129.152 188.382C129.512 190.148 128.243 191.476 126.162 191.9C123.889 192.362 122.153 191.746 121.54 189.718L122.95 189.431C123.398 190.652 124.501 191.026 125.884 190.744C127.13 190.491 127.881 189.767 127.685 188.809C127.504 187.919 126.881 187.59 125.661 187.482L123.617 187.314C122.164 187.182 121.099 186.643 120.835 185.342C120.506 183.727 121.605 182.405 123.7 181.979C125.931 181.524 127.402 182.237 127.836 184.017L126.426 184.304ZM133.249 179.366C135.993 178.411 138.288 179.861 139.256 182.646C140.261 185.535 139.362 188.096 136.618 189.051C133.86 190.01 131.579 188.555 130.574 185.666C129.605 182.882 130.491 180.325 133.249 179.366ZM133.644 180.501C131.928 181.097 131.181 182.777 132.017 185.179C132.866 187.62 134.494 188.473 136.209 187.877C137.911 187.285 138.672 185.6 137.822 183.159C136.987 180.758 135.346 179.909 133.644 180.501ZM147.595 184.503C145.168 185.742 142.63 184.794 141.182 181.957C139.854 179.357 140.363 176.666 143.025 175.307C144.904 174.347 146.858 174.856 147.877 176.422L146.521 177.114C145.812 176.095 144.698 175.786 143.503 176.396C141.823 177.254 141.484 179.2 142.538 181.265C143.605 183.355 145.406 184.24 147.048 183.402C148.218 182.805 148.691 181.826 148.324 180.586L149.705 179.881C150.352 181.731 149.586 183.487 147.595 184.503ZM148.433 172.758L149.624 172.002L154.865 180.259L153.674 181.015L148.433 172.758ZM154.045 168.833L155.343 167.84L164.149 173.414L162.962 174.323L160.296 172.564L157.312 174.848L158.314 177.881L157.138 178.781L154.045 168.833ZM156.937 173.692L159.278 171.9L155.54 169.43L156.937 173.692ZM167.192 170.5L161.143 164.299L158.563 166.816L157.783 166.016L163.953 159.997L164.734 160.797L162.163 163.304L168.212 169.505L167.192 170.5ZM165.168 158.744L166.08 157.667L173.542 163.988L172.63 165.065L165.168 158.744ZM169.812 152.143C171.462 149.751 174.17 149.565 176.597 151.239C179.115 152.977 179.903 155.574 178.253 157.966C176.595 160.369 173.895 160.544 171.377 158.806C168.95 157.132 168.154 154.547 169.812 152.143ZM170.801 152.825C169.77 154.32 170.16 156.117 172.253 157.561C174.38 159.028 176.198 158.755 177.23 157.26C178.253 155.776 177.871 153.968 175.743 152.501C173.65 151.057 171.825 151.342 170.801 152.825ZM173.583 147.042L174.499 145.251L183.773 145.033L176.509 141.32L177.151 140.063L185.858 144.515L184.962 146.269L175.606 146.491L182.933 150.237L182.291 151.493L173.583 147.042Z" fill="#F4EEE5"/>
<path d="M53.3474 87.6248C58.1316 76.3994 66.137 66.8448 76.3514 60.1692C86.5658 53.4936 98.5303 49.9969 110.732 50.1211C122.934 50.2454 134.825 53.9851 144.901 60.8673C154.977 67.7495 162.786 77.4651 167.341 88.7856" stroke="#F4EEE5" stroke-width="1.80266"/>
<path d="M166.675 136.433C161.806 147.621 153.729 157.115 143.464 163.713C133.199 170.311 121.209 173.717 109.008 173.5C96.8077 173.283 84.9456 169.453 74.9218 162.495C64.8979 155.537 57.1626 145.762 52.694 134.407" stroke="#F4EEE5" stroke-width="1.80266"/>
<path d="M77.06 76.2552C77.2415 75.6966 78.0318 75.6966 78.2133 76.2552L79.4432 80.0404C79.5244 80.2902 79.7572 80.4594 80.0198 80.4594H83.9999C84.5872 80.4594 84.8315 81.211 84.3563 81.5562L81.1363 83.8956C80.9238 84.05 80.8349 84.3237 80.9161 84.5735L82.146 88.3588C82.3275 88.9174 81.6881 89.3819 81.213 89.0366L77.993 86.6972C77.7805 86.5428 77.4928 86.5428 77.2803 86.6972L74.0603 89.0366C73.5852 89.3819 72.9458 88.9174 73.1273 88.3588L74.3572 84.5735C74.4384 84.3237 74.3495 84.05 74.137 83.8956L70.917 81.5562C70.4419 81.211 70.6861 80.4594 71.2734 80.4594H75.2535C75.5161 80.4594 75.7489 80.2902 75.8301 80.0404L77.06 76.2552Z" fill="#F4EEE5"/>
<path d="M109.415 58.9505C109.596 58.3919 110.386 58.3919 110.568 58.9505L111.798 62.7357C111.879 62.9856 112.112 63.1547 112.374 63.1547H116.354C116.942 63.1547 117.186 63.9063 116.711 64.2515L113.491 66.5909C113.278 66.7453 113.189 67.019 113.271 67.2688L114.5 71.0541C114.682 71.6127 114.043 72.0772 113.567 71.732L110.348 69.3925C110.135 69.2381 109.847 69.2381 109.635 69.3925L106.415 71.732C105.94 72.0772 105.3 71.6127 105.482 71.0541L106.712 67.2688C106.793 67.019 106.704 66.7453 106.491 66.5909L103.272 64.2515C102.796 63.9063 103.041 63.1547 103.628 63.1547H107.608C107.871 63.1547 108.103 62.9856 108.185 62.7357L109.415 58.9505Z" fill="#F4EEE5"/>
<path d="M141.868 76.2552C142.049 75.6966 142.839 75.6966 143.021 76.2552L144.251 80.0404C144.332 80.2902 144.565 80.4594 144.827 80.4594H148.808C149.395 80.4594 149.639 81.211 149.164 81.5562L145.944 83.8956C145.731 84.05 145.643 84.3237 145.724 84.5735L146.954 88.3588C147.135 88.9174 146.496 89.3819 146.021 89.0366L142.801 86.6972C142.588 86.5428 142.3 86.5428 142.088 86.6972L138.868 89.0366C138.393 89.3819 137.753 88.9174 137.935 88.3588L139.165 84.5735C139.246 84.3237 139.157 84.05 138.945 83.8956L135.725 81.5562C135.249 81.211 135.494 80.4594 136.081 80.4594H140.061C140.324 80.4594 140.557 80.2902 140.638 80.0404L141.868 76.2552Z" fill="#F4EEE5"/>
<path d="M45.8451 82.6368L37.9925 78.9813L36.4713 82.2491L35.4581 81.7774L39.0959 73.9627L40.1091 74.4344L38.5939 77.6895L46.4465 81.3449L45.8451 82.6368ZM40.3696 71.7333L41.1283 70.5436L44.6621 72.7972L47.141 68.9101L43.6073 66.6565L44.366 65.4668L52.6114 70.7252L51.8527 71.9149L48.1069 69.5261L45.628 73.4132L49.3737 75.802L48.615 76.9917L40.3696 71.7333ZM53.7581 69.1571L46.2441 62.8979L50.563 57.7133L51.4861 58.4822L48.0704 62.5827L50.1851 64.3443L53.0822 60.8663L53.9624 61.5996L51.0653 65.0775L53.7381 67.3039L57.1538 63.2034L58.077 63.9724L53.7581 69.1571ZM55.2701 53.0054L56.8092 51.7098L65.4408 55.1087L60.1866 48.8668L61.2661 47.9582L67.5639 55.4398L66.0569 56.7084L57.3482 53.2831L62.6474 59.5784L61.5679 60.4871L55.2701 53.0054ZM66.2804 44.4728L67.6519 43.5834L75.9969 49.8276L74.7427 50.6409L72.2217 48.6791L69.0685 50.7238L69.8312 53.8258L68.5887 54.6315L66.2804 44.4728ZM68.7851 49.5422L71.2584 47.9384L67.7245 45.1848L68.7851 49.5422ZM78.5988 48.7137L74.8191 40.9201L71.576 42.493L71.0883 41.4873L78.8441 37.7259L79.3319 38.7315L76.1013 40.2983L79.881 48.0919L78.5988 48.7137ZM80.83 36.9024L82.1494 36.402L85.6177 45.5457L84.2984 46.0461L80.83 36.9024ZM88.9722 34.1338C91.7754 33.3682 93.9656 34.9713 94.7423 37.815C95.5484 40.7664 94.4772 43.2603 91.674 44.0259C88.8573 44.7953 86.6806 43.1885 85.8745 40.237C85.0978 37.3934 86.1555 34.9032 88.9722 34.1338ZM89.2888 35.2929C87.5368 35.7714 86.6772 37.3965 87.3471 39.8493C88.0281 42.3425 89.5944 43.305 91.3464 42.8265C93.0849 42.3516 93.958 40.7229 93.277 38.2297C92.6071 35.7768 91.0273 34.818 89.2888 35.2929ZM96.4886 32.5993L98.486 32.3592L103.843 39.9328L102.869 31.8323L104.27 31.6638L105.437 41.3734L103.482 41.6085L98.0747 33.9706L99.0569 42.1404L97.6559 42.3089L96.4886 32.5993ZM110.485 31.5422L112.119 31.5685L115.566 41.4045L114.071 41.3805L113.072 38.3464L109.315 38.2861L108.218 41.2865L106.738 41.2627L110.485 31.5422ZM109.738 37.1471L112.685 37.1945L111.287 32.9384L109.738 37.1471ZM118.212 31.8616L119.623 32.0589L118.428 40.6096L123.685 41.3446L123.527 42.4791L116.858 41.5468L118.212 31.8616ZM128.057 43.5902L131.091 34.2936L134.863 35.5249C137.187 36.2836 138.637 38.4615 137.622 41.5693C136.66 44.5176 134.391 45.6583 131.908 44.8475L128.057 43.5902ZM131.692 43.5279C133.614 44.1698 135.333 43.6732 136.175 41.0967C137.024 38.4936 135.916 37.1177 133.977 36.4847L132.064 35.8604L129.771 42.8859L131.692 43.5279ZM141.525 37.8429L142.819 38.4057L138.918 47.3737L137.624 46.8109L141.525 37.8429ZM148.928 44.5423C149.464 43.403 148.771 42.5995 147.8 42.0747C146.755 41.51 145.744 41.6465 145.339 42.3961C144.974 43.0721 145.362 43.6471 146.246 44.538L147.542 45.8421C148.62 46.9329 149.101 48.1297 148.403 49.4201C147.546 51.0055 145.72 51.2098 143.852 50.2C141.812 49.0971 140.875 47.5107 141.706 45.5619L142.972 46.2462C142.533 47.4699 143.139 48.4644 144.38 49.1354C145.498 49.7399 146.538 49.6669 147.004 48.8066C147.435 48.0078 147.169 47.3554 146.302 46.4901L144.842 45.0495C143.812 44.0164 143.341 42.9199 143.972 41.7524C144.756 40.3022 146.447 39.9936 148.328 41.0101C150.331 42.093 151.002 43.5834 150.193 45.2266L148.928 44.5423ZM156.55 46.3833L157.872 47.3445L155.037 57.3739L153.828 56.4949L154.755 53.438L151.715 51.2281L149.093 53.0527L147.895 52.1819L156.55 46.3833ZM152.716 50.5397L155.101 52.2731L156.403 47.9867L152.716 50.5397ZM164.921 56.793C165.733 55.8306 165.271 54.8755 164.468 54.118C163.604 53.3029 162.592 53.1741 162.008 53.7939C161.48 54.3527 161.707 55.0083 162.331 56.0971L163.247 57.6914C164.007 59.0233 164.163 60.3036 163.156 61.3705C161.919 62.6812 160.103 62.4076 158.558 60.9502C156.871 59.3584 156.375 57.584 157.681 55.9155L158.728 56.9032C157.988 57.9722 158.316 59.0893 159.343 60.0577C160.267 60.9303 161.291 61.128 161.962 60.4167C162.585 59.7563 162.496 59.0572 161.882 57.9977L160.843 56.2292C160.114 54.9655 159.942 53.7845 160.853 52.8193C161.984 51.6204 163.698 51.7585 165.252 53.2256C166.909 54.7885 167.173 56.4016 165.967 57.7806L164.921 56.793ZM163.921 66.3594L170.592 60.8344L168.293 58.0584L169.154 57.3455L174.652 63.9841L173.791 64.697L171.501 61.9318L164.83 67.4569L163.921 66.3594ZM167.837 71.2811L176.096 66.0438L179.71 71.7424L178.695 72.3858L175.837 67.8789L173.513 69.3528L175.937 73.1755L174.969 73.789L172.545 69.9663L169.607 71.8293L172.466 76.3363L171.451 76.9797L167.837 71.2811ZM172.125 78.2575L180.944 74.0315L182.61 77.5088C183.467 79.2979 183.086 80.7662 181.449 81.551C180.365 82.0702 179.524 81.9311 178.712 81.1426C178.881 81.8828 178.601 82.528 177.912 82.9975L176.427 84.0349C176.034 84.3157 175.686 84.591 175.411 84.9551L175.348 84.9853L174.684 83.5994C174.933 83.3099 175.237 83.0713 175.869 82.6445L176.955 81.9379C177.707 81.4382 177.937 80.7859 177.569 80.0174L176.476 77.737L172.734 79.53L172.125 78.2575ZM178.425 79.2507C178.884 80.2082 179.605 80.8389 180.776 80.2775C181.885 79.7462 181.925 78.8595 181.448 77.8642L180.47 75.8232L177.471 77.26L178.425 79.2507Z" fill="#F4EEE5"/>
<mask id="mask0_444_431" style="mask-type:alpha" maskUnits="userSpaceOnUse" x="47" y="47" width="126" height="126">
<circle cx="109.991" cy="110.008" r="61.6961" fill="white" stroke="black" stroke-width="1.80266"/>
</mask>
<g mask="url(#mask0_444_431)">
<path d="M143.485 152.791C143.731 152.791 143.93 152.991 143.93 153.237V182.159C143.93 182.406 143.731 182.605 143.485 182.605H76.4419C76.1957 182.605 75.9956 182.406 75.9956 182.159V153.237C75.9956 152.991 76.1957 152.791 76.4419 152.791H77.5132C77.0685 152.791 76.8988 152.211 77.2729 151.971L109.722 131.113C109.869 131.019 110.057 131.019 110.204 131.113L142.653 151.971C143.027 152.211 142.857 152.791 142.413 152.791H143.485Z" fill="#F4EEE5"/>
</g>
</svg>
