<svg width="289" height="32" viewBox="0 0 289 32" fill="none" xmlns="http://www.w3.org/2000/svg">
<path d="M3.4788 29.6211C3.35588 29.6211 3.29442 29.1909 3.29442 28.7914C3.29442 28.3919 3.35588 28.0231 3.4788 28.0231C4.92309 28.0231 7.38147 27.808 7.4122 26.5788C7.47366 23.5059 7.50439 20.4022 7.50439 17.3292C7.50439 14.2562 7.47366 11.1525 7.4122 8.07955C7.38147 6.85036 4.92309 6.63525 3.4788 6.63525C3.35588 6.63525 3.29442 6.26649 3.29442 5.86701C3.29442 5.46752 3.35588 5.03731 3.4788 5.03731C5.35331 5.03731 7.22782 5.16022 9.10234 5.16022H10.2393C11.5607 5.09876 12.8821 5.03731 14.2035 5.03731C19.6426 5.03731 22.9 7.40349 22.9 11.3676C22.9 15.424 20.165 17.7901 16.7233 18.5584L24.2828 27.4086C24.713 27.9002 25.6042 28.0231 26.987 28.0231C27.11 28.0231 27.1714 28.3919 27.1714 28.7914C27.1714 29.1909 27.11 29.6211 26.987 29.6211C25.6042 29.6211 24.2521 29.4982 22.8693 29.4982C21.0869 29.4982 19.6119 29.6211 18.0447 29.6211C17.9218 29.6211 17.8603 29.2216 17.8603 28.8221C17.8603 28.4226 17.9218 28.0231 18.0447 28.0231C19.1202 28.0231 19.7963 27.9617 19.7963 27.5929C19.7963 27.5007 19.7656 27.4393 19.6426 27.2549L14.6337 20.6787C13.6196 19.3266 12.3904 18.6506 10.731 18.5891C10.731 21.2626 10.7617 23.9361 10.8232 26.5788C10.8539 27.808 13.3123 28.0231 14.7566 28.0231C14.8795 28.0231 14.941 28.3919 14.941 28.7914C14.941 29.1909 14.8795 29.6211 14.7566 29.6211C12.9128 29.6211 11.0076 29.4982 9.1638 29.4982C7.25855 29.4982 5.38404 29.6211 3.4788 29.6211ZM13.804 16.7761C16.6926 16.7761 19.2739 14.7786 19.2739 11.9515C19.2739 9.24728 17.6145 7.18839 12.1753 7.18839C11.4378 7.18839 10.8232 7.43422 10.8232 8.07955C10.7617 10.8145 10.731 13.5802 10.731 16.3458C11.6222 16.6839 12.4212 16.7761 13.804 16.7761ZM28.4311 29.6211C28.3082 29.6211 28.2467 29.1909 28.2467 28.7914C28.2467 28.3919 28.3082 28.0231 28.4311 28.0231C29.8754 28.0231 32.3338 27.808 32.3645 26.5788C32.426 23.5059 32.4567 20.4022 32.4567 17.3292C32.4567 14.2562 32.426 11.1525 32.3645 8.07955C32.3338 6.85036 29.8754 6.63525 28.4311 6.63525C28.3082 6.63525 28.2467 6.26649 28.2467 5.86701C28.2467 5.46752 28.3082 5.03731 28.4311 5.03731C30.3056 5.03731 32.1801 5.16022 34.0546 5.16022H34.3005C36.1443 5.12949 37.9266 5.03731 39.7089 5.03731H48.6513C48.7435 6.45087 49.02 9.27801 49.7575 12.7197C49.7883 12.9041 49.3888 12.9963 48.9586 12.9963C48.5283 12.9963 48.0981 12.9041 48.0981 12.7197C47.8216 8.14101 44.3491 6.72744 40.6001 6.72744C38.9407 6.72744 35.9292 6.60452 35.7755 8.07955C35.714 10.6301 35.6833 13.2114 35.6833 15.762H39.7704C43.4887 15.762 44.1033 14.164 44.1033 12.7812C44.1033 12.6583 44.472 12.5968 44.8715 12.5968C45.271 12.5968 45.7012 12.6583 45.7012 12.7812C45.5168 14.2562 45.4246 15.6698 45.4246 17.1448C45.4246 18.6198 45.5168 20.1256 45.7012 21.8465C45.7012 21.9694 45.3017 22.0308 44.9022 22.0308C44.5028 22.0308 44.1033 21.9694 44.1033 21.8465C44.1033 19.511 43.1814 17.8209 39.7704 17.8209H35.6833C35.6833 20.6787 35.714 23.6288 35.7755 26.5788C35.9292 28.0539 38.9407 27.931 40.6001 27.931C44.2262 27.931 47.2377 26.6096 48.0981 21.9387C48.0981 21.7543 48.5283 21.6621 48.9586 21.6621C49.3888 21.6621 49.7883 21.7543 49.7575 21.9387C49.2044 25.2882 48.7742 28.2075 48.6513 29.6211C46.6538 29.6211 44.6871 29.5596 42.6897 29.5596C41.1532 29.5596 39.0636 29.5596 34.3619 29.5289C32.2109 29.5289 30.3363 29.6211 28.4311 29.6211ZM53.0833 29.6211C52.9604 29.6211 52.8989 29.1909 52.8989 28.7914C52.8989 28.3919 52.9604 28.0231 53.0833 28.0231C54.5276 28.0231 56.986 27.808 57.0167 26.5788C57.0782 23.5059 57.1089 20.4022 57.1089 17.3292C57.1089 14.2562 57.0782 11.1525 57.0167 8.07955C56.986 6.85036 54.5276 6.63525 53.0833 6.63525C52.9604 6.63525 52.8989 6.26649 52.8989 5.86701C52.8989 5.46752 52.9604 5.03731 53.0833 5.03731C54.9578 5.03731 56.8323 5.16022 58.7069 5.16022H58.9834C60.6121 5.12949 61.9335 5.03731 64.2075 5.03731C69.0935 5.03731 71.8285 6.88109 71.8285 10.1692C71.8285 13.0578 70.0461 15.762 66.6351 16.6224V16.6839C68.694 16.899 73.3035 17.4521 73.3035 22.4611C73.3035 26.9783 69.2164 29.6211 64.2075 29.6211C61.9335 29.6211 60.5814 29.5289 58.9527 29.4982H58.7683C56.8631 29.4982 54.9886 29.6211 53.0833 29.6211ZM60.3355 15.7313H61.7798C66.6351 15.7313 68.2638 13.7953 68.2638 11.1833C68.2638 9.12436 67.5263 6.97328 62.1793 6.97328C61.073 6.97328 60.4277 7.46495 60.4277 8.01809C60.3663 10.6301 60.3355 13.2114 60.3355 15.7313ZM63.808 27.6851C68.4482 27.6851 69.5545 24.5814 69.5545 22.7991C69.5545 18.8042 65.7747 17.7901 61.6569 17.7901H60.3355C60.3355 20.7095 60.4277 23.6595 60.4277 26.5788C60.4277 27.4086 61.5033 27.6851 63.808 27.6851ZM88.6892 30.082C82.574 30.082 79.501 26.2716 79.4703 20.4022V8.07955C79.3474 6.85036 76.9505 6.63525 75.5062 6.63525C75.3833 6.63525 75.3218 6.26649 75.3218 5.86701C75.3218 5.46752 75.3833 5.03731 75.5062 5.03731C77.4114 5.03731 79.3474 5.16022 81.1297 5.16022C83.035 5.16022 84.9402 5.03731 86.8454 5.03731C86.9684 5.03731 87.0298 5.46752 87.0298 5.86701C87.0298 6.26649 86.9684 6.63525 86.8454 6.63525C85.4011 6.63525 83.0042 6.85036 82.912 8.07955V16.8068C82.912 23.721 83.711 27.5622 89.1809 27.5622C93.7289 27.5622 95.419 24.2741 95.419 19.4803V8.07955C95.2961 6.85036 92.8992 6.63525 91.4549 6.63525C91.332 6.63525 91.2705 6.26649 91.2705 5.86701C91.2705 5.46752 91.332 5.03731 91.4549 5.03731C93.1758 5.03731 94.8659 5.16022 96.5868 5.16022C98.3076 5.16022 100.059 5.03731 101.78 5.03731C101.903 5.03731 101.964 5.46752 101.964 5.86701C101.964 6.26649 101.903 6.63525 101.78 6.63525C100.336 6.63525 97.9389 6.85036 97.8467 8.07955V19.511C97.8467 26.1486 95.0196 30.082 88.6892 30.082ZM104.308 29.6211C104.185 29.6211 104.124 29.1909 104.124 28.7914C104.124 28.3919 104.185 28.0231 104.308 28.0231C105.753 28.0231 108.211 27.808 108.242 26.5788C108.303 23.5059 108.334 20.4022 108.334 17.3292C108.334 14.2562 108.303 11.1525 108.242 8.07955C108.211 6.85036 105.753 6.63525 104.308 6.63525C104.185 6.63525 104.124 6.26649 104.124 5.86701C104.124 5.46752 104.185 5.03731 104.308 5.03731C106.183 5.03731 108.057 5.16022 109.932 5.16022C111.806 5.16022 113.712 5.03731 115.586 5.03731C115.709 5.03731 115.771 5.46752 115.771 5.86701C115.771 6.26649 115.709 6.63525 115.586 6.63525C114.142 6.63525 111.683 6.85036 111.653 8.07955C111.591 11.1525 111.561 14.2562 111.561 17.3292C111.561 20.4022 111.591 23.5059 111.653 26.5788C111.683 27.808 114.142 28.0231 115.586 28.0231C115.709 28.0231 115.771 28.3919 115.771 28.7914C115.771 29.1909 115.709 29.6211 115.586 29.6211C113.742 29.6211 111.837 29.4982 109.993 29.4982C108.088 29.4982 106.214 29.6211 104.308 29.6211ZM132.653 29.6518C131.731 29.6518 130.778 29.6518 129.795 29.6211C128.873 29.6211 126.568 29.4982 124.387 29.4982C122.85 29.4982 119.654 29.6211 118.517 29.6211C118.394 29.6211 118.333 29.1909 118.333 28.7914C118.333 28.3919 118.394 28.0231 118.517 28.0231C119.962 28.0231 122.42 27.808 122.451 26.5788C122.512 23.5059 122.543 20.4022 122.543 17.3292C122.543 14.2562 122.512 11.1525 122.451 8.07955C122.42 6.85036 119.962 6.63525 118.517 6.63525C118.394 6.63525 118.333 6.26649 118.333 5.86701C118.333 5.46752 118.394 5.03731 118.517 5.03731C120.392 5.03731 122.266 5.16022 124.141 5.16022C126.015 5.16022 127.921 5.03731 129.795 5.03731C129.918 5.03731 129.979 5.46752 129.979 5.86701C129.979 6.26649 129.918 6.63525 129.795 6.63525C128.351 6.63525 125.892 6.85036 125.862 8.07955C125.8 11.1525 125.769 14.2562 125.769 17.3292C125.769 20.4022 125.8 23.5059 125.862 26.5788C125.862 28.0539 129.027 27.931 130.686 27.931C134.005 27.931 137.017 26.6096 137.877 21.9387C137.877 21.7543 138.307 21.6621 138.737 21.6621C139.168 21.6621 139.567 21.7543 139.536 21.9387C138.983 25.2882 138.553 28.2075 138.43 29.6211C136.433 29.6211 134.558 29.6518 132.653 29.6518ZM141.789 29.6211C141.666 29.6211 141.605 29.1909 141.605 28.7914C141.605 28.3919 141.666 28.0231 141.789 28.0231C143.233 28.0231 145.692 27.808 145.722 26.5788C145.784 23.5059 145.815 20.4022 145.815 17.3292C145.815 14.2562 145.784 11.1525 145.722 8.07955C145.692 6.85036 143.233 6.63525 141.789 6.63525C141.666 6.63525 141.605 6.26649 141.605 5.86701C141.605 5.46752 141.666 5.03731 141.789 5.03731C143.664 5.03731 145.538 5.16022 147.413 5.16022C149.287 5.16022 151.192 5.03731 153.067 5.03731C160.995 5.03731 166.004 9.76968 166.004 17.2985C166.004 24.1819 161.425 29.6211 153.835 29.6211C151.807 29.6211 148.119 29.4982 147.474 29.4982C145.569 29.4982 143.694 29.6211 141.789 29.6211ZM150.578 27.5929C157.615 27.5929 162.316 25.5648 162.316 17.2985C162.316 9.03217 157.615 7.06547 150.578 7.06547C149.687 7.06547 149.133 7.52641 149.133 8.07955C149.072 11.1525 149.041 14.2562 149.041 17.3292C149.041 20.4022 149.072 23.5059 149.133 26.5788C149.133 27.1934 149.779 27.5929 150.578 27.5929Z" fill="black"/>
<path d="M176.406 0L177.731 4.07687H182.017L178.549 6.59652L179.874 10.6734L176.406 8.15375L172.938 10.6734L174.263 6.59652L170.795 4.07687H175.081L176.406 0Z" fill="black"/>
<path d="M173.007 20.9707V15.4128H170.694V14.6957H176.225V15.4128H173.921V20.9707H173.007ZM177.051 14.6957H177.957V17.385H180.915V14.6957H181.82V20.9707H180.915V18.1201H177.957V20.9707H177.051V14.6957ZM183.074 20.9707V14.6957H187.404V15.4666H183.979V17.2326H186.884V17.9677H183.979V20.1998H187.404V20.9707H183.074ZM190.576 14.6957H191.867L194.7 19.9308V14.6957H195.605V20.9707H194.341L191.482 15.6907V20.9707H190.576V14.6957ZM198.753 14.6957H199.802L202.115 20.9707H201.156L200.484 19.0344H198.072L197.4 20.9707H196.45L198.753 14.6957ZM198.332 18.2993H200.224L199.282 15.5832L198.332 18.2993ZM203.927 20.9707V15.4128H201.614V14.6957H207.145V15.4128H204.841V20.9707H203.927ZM207.971 14.6957H208.876V20.9707H207.971V14.6957ZM212.885 14.5343C214.75 14.5343 215.835 15.8969 215.835 17.7884C215.835 19.7516 214.75 21.1141 212.885 21.1141C211.012 21.1141 209.936 19.7516 209.936 17.7884C209.936 15.8969 211.012 14.5343 212.885 14.5343ZM212.885 15.3053C211.72 15.3053 210.913 16.1658 210.913 17.7973C210.913 19.4557 211.72 20.3163 212.885 20.3163C214.042 20.3163 214.858 19.4557 214.858 17.7973C214.858 16.1658 214.042 15.3053 212.885 15.3053ZM216.892 14.6957H218.182L221.015 19.9308V14.6957H221.921V20.9707H220.657L217.797 15.6907V20.9707H216.892V14.6957ZM225.069 14.6957H226.117L228.43 20.9707H227.471L226.799 19.0344H224.387L223.715 20.9707H222.765L225.069 14.6957ZM224.647 18.2993H226.539L225.598 15.5832L224.647 18.2993ZM229.27 14.6957H230.185V20.2356H233.591V20.9707H229.27V14.6957ZM236.589 20.9707V14.6957H239.134C240.703 14.6957 242.021 15.7355 242.021 17.8332C242.021 19.8233 240.865 20.9707 239.188 20.9707H236.589ZM238.794 20.2087C240.094 20.2177 241.044 19.5723 241.044 17.8332C241.044 16.0762 240.094 15.4577 238.785 15.4577H237.494V20.1998L238.794 20.2087ZM243.075 14.6957H243.981V20.9707H243.075V14.6957ZM248.77 16.372C248.725 15.5652 248.088 15.3232 247.38 15.3232C246.618 15.3232 246.089 15.7087 246.089 16.2555C246.089 16.7485 246.484 16.9547 247.255 17.1878L248.384 17.5284C249.325 17.8153 249.962 18.3442 249.962 19.2854C249.962 20.4418 248.994 21.1141 247.631 21.1141C246.143 21.1141 245.13 20.5046 245.005 19.1509H245.928C246.054 19.9757 246.699 20.3522 247.604 20.3522C248.42 20.3522 248.985 19.9936 248.985 19.3661C248.985 18.7834 248.635 18.4966 247.882 18.2724L246.618 17.9049C245.722 17.636 245.121 17.1609 245.121 16.3093C245.121 15.2515 245.982 14.5612 247.353 14.5612C248.815 14.5612 249.648 15.1977 249.693 16.372H248.77ZM252.828 14.6957H253.877L256.19 20.9707H255.231L254.558 19.0344H252.147L251.475 20.9707H250.524L252.828 14.6957ZM252.407 18.2993H254.298L253.357 15.5832L252.407 18.2993ZM260.553 16.372C260.508 15.5652 259.872 15.3232 259.163 15.3232C258.401 15.3232 257.873 15.7087 257.873 16.2555C257.873 16.7485 258.267 16.9547 259.038 17.1878L260.167 17.5284C261.109 17.8153 261.745 18.3442 261.745 19.2854C261.745 20.4418 260.777 21.1141 259.414 21.1141C257.926 21.1141 256.913 20.5046 256.788 19.1509H257.711C257.837 19.9757 258.482 20.3522 259.387 20.3522C260.203 20.3522 260.768 19.9936 260.768 19.3661C260.768 18.7834 260.418 18.4966 259.665 18.2724L258.401 17.9049C257.505 17.636 256.904 17.1609 256.904 16.3093C256.904 15.2515 257.765 14.5612 259.136 14.5612C260.598 14.5612 261.431 15.1977 261.476 16.372H260.553ZM264.322 20.9707V15.4128H262.009V14.6957H267.54V15.4128H265.236V20.9707H264.322ZM268.366 20.9707V14.6957H272.696V15.4666H269.272V17.2326H272.176V17.9677H269.272V20.1998H272.696V20.9707H268.366ZM273.628 20.9707V14.6957H276.102C277.375 14.6957 278.119 15.3232 278.119 16.4885C278.119 17.2595 277.805 17.7077 277.124 17.9587C277.599 18.0663 277.895 18.4069 277.975 18.9358L278.164 20.0832C278.217 20.388 278.28 20.6659 278.415 20.9259V20.9707H277.429C277.33 20.7466 277.276 20.5046 277.204 20.0205L277.097 19.1958C277.016 18.6221 276.702 18.3083 276.156 18.3083H274.533V20.9707H273.628ZM275.949 17.6001C276.631 17.6001 277.195 17.3581 277.195 16.5244C277.195 15.7355 276.693 15.4666 275.985 15.4666H274.533V17.6001H275.949ZM174.665 25.372C174.62 24.5652 173.984 24.3232 173.276 24.3232C172.514 24.3232 171.985 24.7087 171.985 25.2555C171.985 25.7485 172.379 25.9547 173.15 26.1878L174.28 26.5284C175.221 26.8153 175.858 27.3442 175.858 28.2854C175.858 29.4418 174.889 30.1141 173.527 30.1141C172.039 30.1141 171.026 29.5046 170.9 28.1509H171.824C171.949 28.9757 172.595 29.3522 173.5 29.3522C174.316 29.3522 174.88 28.9936 174.88 28.3661C174.88 27.7834 174.531 27.4966 173.778 27.2724L172.514 26.9049C171.617 26.636 171.017 26.1609 171.017 25.3093C171.017 24.2515 171.877 23.5612 173.249 23.5612C174.71 23.5612 175.544 24.1977 175.589 25.372H174.665ZM176.779 23.6957H177.693V27.4697C177.693 28.5723 178.168 29.3163 179.226 29.3163C180.284 29.3163 180.759 28.5723 180.759 27.4697V23.6957H181.664V27.4697C181.664 29.0653 180.857 30.0872 179.226 30.0872C177.594 30.0872 176.779 29.0653 176.779 27.4697V23.6957ZM182.873 29.9707V23.6957H185.347C186.62 23.6957 187.364 24.3232 187.364 25.4885C187.364 26.2595 187.05 26.7077 186.369 26.9587C186.844 27.0663 187.14 27.4069 187.22 27.9358L187.409 29.0832C187.462 29.388 187.525 29.6659 187.66 29.9259V29.9707H186.674C186.575 29.7466 186.521 29.5046 186.45 29.0205L186.342 28.1958C186.261 27.6221 185.948 27.3083 185.401 27.3083H183.778V29.9707H182.873ZM185.195 26.6001C185.876 26.6001 186.441 26.3581 186.441 25.5244C186.441 24.7355 185.939 24.4666 185.23 24.4666H183.778V26.6001H185.195ZM190.397 29.9707L188.246 23.6957H189.232L190.962 29.0026L192.683 23.6957H193.669L191.527 29.9707H190.397ZM194.455 23.6957H195.36V29.9707H194.455V23.6957ZM198.302 29.9707L196.151 23.6957H197.137L198.867 29.0026L200.588 23.6957H201.574L199.432 29.9707H198.302ZM205.112 23.5343C206.976 23.5343 208.061 24.8969 208.061 26.7884C208.061 28.7516 206.976 30.1141 205.112 30.1141C203.238 30.1141 202.162 28.7516 202.162 26.7884C202.162 24.8969 203.238 23.5343 205.112 23.5343ZM205.112 24.3053C203.946 24.3053 203.14 25.1658 203.14 26.7973C203.14 28.4557 203.946 29.3163 205.112 29.3163C206.268 29.3163 207.084 28.4557 207.084 26.7973C207.084 25.1658 206.268 24.3053 205.112 24.3053ZM209.118 29.9707V23.6957H211.592C212.865 23.6957 213.609 24.3232 213.609 25.4885C213.609 26.2595 213.295 26.7077 212.614 26.9587C213.089 27.0663 213.385 27.4069 213.466 27.9358L213.654 29.0832C213.708 29.388 213.77 29.6659 213.905 29.9259V29.9707H212.919C212.82 29.7466 212.766 29.5046 212.695 29.0205L212.587 28.1958C212.506 27.6221 212.193 27.3083 211.646 27.3083H210.023V29.9707H209.118ZM211.44 26.6001C212.121 26.6001 212.686 26.3581 212.686 25.5244C212.686 24.7355 212.184 24.4666 211.475 24.4666H210.023V26.6001H211.44ZM218.489 25.372C218.444 24.5652 217.808 24.3232 217.099 24.3232C216.337 24.3232 215.809 24.7087 215.809 25.2555C215.809 25.7485 216.203 25.9547 216.974 26.1878L218.103 26.5284C219.045 26.8153 219.681 27.3442 219.681 28.2854C219.681 29.4418 218.713 30.1141 217.35 30.1141C215.862 30.1141 214.849 29.5046 214.724 28.1509H215.647C215.773 28.9757 216.418 29.3522 217.324 29.3522C218.139 29.3522 218.704 28.9936 218.704 28.3661C218.704 27.7834 218.354 27.4966 217.601 27.2724L216.337 26.9049C215.441 26.636 214.84 26.1609 214.84 25.3093C214.84 24.2515 215.701 23.5612 217.073 23.5612C218.534 23.5612 219.367 24.1977 219.412 25.372H218.489ZM223.922 23.6957H224.971L227.283 29.9707H226.324L225.652 28.0344H223.241L222.568 29.9707H221.618L223.922 23.6957ZM223.5 27.2993H225.392L224.451 24.5832L223.5 27.2993ZM231.646 25.372C231.602 24.5652 230.965 24.3232 230.257 24.3232C229.495 24.3232 228.966 24.7087 228.966 25.2555C228.966 25.7485 229.361 25.9547 230.131 26.1878L231.261 26.5284C232.202 26.8153 232.839 27.3442 232.839 28.2854C232.839 29.4418 231.871 30.1141 230.508 30.1141C229.02 30.1141 228.007 29.5046 227.881 28.1509H228.805C228.93 28.9757 229.576 29.3522 230.481 29.3522C231.297 29.3522 231.862 28.9936 231.862 28.3661C231.862 27.7834 231.512 27.4966 230.759 27.2724L229.495 26.9049C228.599 26.636 227.998 26.1609 227.998 25.3093C227.998 24.2515 228.859 23.5612 230.23 23.5612C231.691 23.5612 232.525 24.1977 232.57 25.372H231.646ZM237.345 25.372C237.301 24.5652 236.664 24.3232 235.956 24.3232C235.194 24.3232 234.665 24.7087 234.665 25.2555C234.665 25.7485 235.06 25.9547 235.83 26.1878L236.96 26.5284C237.901 26.8153 238.538 27.3442 238.538 28.2854C238.538 29.4418 237.57 30.1141 236.207 30.1141C234.719 30.1141 233.706 29.5046 233.58 28.1509H234.504C234.629 28.9757 235.275 29.3522 236.18 29.3522C236.996 29.3522 237.561 28.9936 237.561 28.3661C237.561 27.7834 237.211 27.4966 236.458 27.2724L235.194 26.9049C234.298 26.636 233.697 26.1609 233.697 25.3093C233.697 24.2515 234.558 23.5612 235.929 23.5612C237.39 23.5612 238.224 24.1977 238.269 25.372H237.345ZM242.265 23.5343C244.129 23.5343 245.214 24.8969 245.214 26.7884C245.214 28.7516 244.129 30.1141 242.265 30.1141C240.391 30.1141 239.315 28.7516 239.315 26.7884C239.315 24.8969 240.391 23.5343 242.265 23.5343ZM242.265 24.3053C241.099 24.3053 240.292 25.1658 240.292 26.7973C240.292 28.4557 241.099 29.3163 242.265 29.3163C243.421 29.3163 244.237 28.4557 244.237 26.7973C244.237 25.1658 243.421 24.3053 242.265 24.3053ZM248.996 30.1321C247.248 30.1321 246.074 28.8502 246.074 26.8063C246.074 24.9328 247.149 23.5433 249.068 23.5433C250.421 23.5433 251.389 24.4039 251.515 25.5961H250.538C250.43 24.8073 249.883 24.3053 249.023 24.3053C247.813 24.3053 247.051 25.3182 247.051 26.8063C247.051 28.3123 247.822 29.3432 249.005 29.3432C249.848 29.3432 250.403 28.9219 250.556 28.1061H251.551C251.38 29.3522 250.43 30.1321 248.996 30.1321ZM252.6 23.6957H253.505V29.9707H252.6V23.6957ZM256.654 23.6957H257.703L260.015 29.9707H259.056L258.384 28.0344H255.973L255.3 29.9707H254.35L256.654 23.6957ZM256.232 27.2993H258.124L257.183 24.5832L256.232 27.2993ZM261.827 29.9707V24.4128H259.514V23.6957H265.045V24.4128H262.741V29.9707H261.827ZM265.871 23.6957H266.777V29.9707H265.871V23.6957ZM270.786 23.5343C272.65 23.5343 273.735 24.8969 273.735 26.7884C273.735 28.7516 272.65 30.1141 270.786 30.1141C268.912 30.1141 267.837 28.7516 267.837 26.7884C267.837 24.8969 268.912 23.5343 270.786 23.5343ZM270.786 24.3053C269.62 24.3053 268.814 25.1658 268.814 26.7973C268.814 28.4557 269.62 29.3163 270.786 29.3163C271.942 29.3163 272.758 28.4557 272.758 26.7973C272.758 25.1658 271.942 24.3053 270.786 24.3053ZM274.792 23.6957H276.083L278.916 28.9308V23.6957H279.821V29.9707H278.557L275.697 24.6907V29.9707H274.792V23.6957Z" fill="black"/>
</svg>
