<svg width="1234" height="133" viewBox="0 0 1234 133" fill="none" xmlns="http://www.w3.org/2000/svg">
<path d="M14.8546 127C14.3298 127 14.0674 125.163 14.0674 123.457C14.0674 121.752 14.3298 120.177 14.8546 120.177C21.0212 120.177 31.5176 119.259 31.6488 114.011C31.9112 100.89 32.0424 87.6385 32.0424 74.518C32.0424 61.3975 31.9112 48.1458 31.6488 35.0254C31.5176 29.7772 21.0212 28.8587 14.8546 28.8587C14.3298 28.8587 14.0674 27.2843 14.0674 25.5786C14.0674 23.8729 14.3298 22.0361 14.8546 22.0361C22.8581 22.0361 30.8616 22.5609 38.8651 22.5609H43.7197C49.3615 22.2985 55.0033 22.0361 60.6451 22.0361C83.8684 22.0361 97.7761 32.1388 97.7761 49.0643C97.7761 66.3833 86.0989 76.4861 71.4039 79.7662L103.68 117.553C105.517 119.653 109.322 120.177 115.226 120.177C115.751 120.177 116.014 121.752 116.014 123.457C116.014 125.163 115.751 127 115.226 127C109.322 127 103.549 126.475 97.6449 126.475C90.035 126.475 83.7372 127 77.0457 127C76.5209 127 76.2585 125.294 76.2585 123.589C76.2585 121.883 76.5209 120.177 77.0457 120.177C81.6379 120.177 84.5244 119.915 84.5244 118.34C84.5244 117.947 84.3932 117.684 83.8684 116.897L62.482 88.8194C58.1522 83.0464 52.904 80.1598 45.8189 79.8974C45.8189 91.3123 45.9501 102.727 46.2126 114.011C46.3438 119.259 56.8402 120.177 63.0068 120.177C63.5316 120.177 63.794 121.752 63.794 123.457C63.794 125.163 63.5316 127 63.0068 127C55.1345 127 46.9998 126.475 39.1275 126.475C30.9928 126.475 22.9893 127 14.8546 127ZM58.9394 72.1563C71.2727 72.1563 82.2939 63.628 82.2939 51.5572C82.2939 40.0111 75.2088 31.2204 51.9856 31.2204C48.8367 31.2204 46.2126 32.27 46.2126 35.0254C45.9501 46.7026 45.8189 58.511 45.8189 70.3195C49.6239 71.7627 53.0352 72.1563 58.9394 72.1563ZM121.392 127C120.867 127 120.605 125.163 120.605 123.457C120.605 121.752 120.867 120.177 121.392 120.177C127.559 120.177 138.055 119.259 138.186 114.011C138.449 100.89 138.58 87.6385 138.58 74.518C138.58 61.3975 138.449 48.1458 138.186 35.0254C138.055 29.7772 127.559 28.8587 121.392 28.8587C120.867 28.8587 120.605 27.2843 120.605 25.5786C120.605 23.8729 120.867 22.0361 121.392 22.0361C129.395 22.0361 137.399 22.5609 145.402 22.5609H146.452C154.324 22.4297 161.934 22.0361 169.544 22.0361H207.725C208.118 28.0715 209.299 40.1423 212.448 54.8373C212.579 55.6245 210.874 56.0181 209.037 56.0181C207.2 56.0181 205.363 55.6245 205.363 54.8373C204.182 35.2878 189.356 29.2523 173.349 29.2523C166.264 29.2523 153.406 28.7275 152.75 35.0254C152.488 45.9154 152.356 56.9366 152.356 67.8266H169.807C185.682 67.8266 188.306 61.0039 188.306 55.0997C188.306 54.5749 189.881 54.3125 191.587 54.3125C193.292 54.3125 195.129 54.5749 195.129 55.0997C194.342 61.3975 193.948 67.433 193.948 73.7308C193.948 80.0286 194.342 86.4577 195.129 93.8052C195.129 94.33 193.423 94.5924 191.718 94.5924C190.012 94.5924 188.306 94.33 188.306 93.8052C188.306 83.8336 184.37 76.6173 169.807 76.6173H152.356C152.356 88.8194 152.488 101.415 152.75 114.011C153.406 120.309 166.264 119.784 173.349 119.784C188.831 119.784 201.689 114.142 205.363 94.1988C205.363 93.4115 207.2 93.0179 209.037 93.0179C210.874 93.0179 212.579 93.4115 212.448 94.1988C210.086 108.5 208.25 120.965 207.725 127C199.196 127 190.799 126.738 182.271 126.738C175.711 126.738 166.789 126.738 146.714 126.606C137.53 126.606 129.527 127 121.392 127ZM226.648 127C226.123 127 225.861 125.163 225.861 123.457C225.861 121.752 226.123 120.177 226.648 120.177C232.815 120.177 243.311 119.259 243.442 114.011C243.705 100.89 243.836 87.6385 243.836 74.518C243.836 61.3975 243.705 48.1458 243.442 35.0254C243.311 29.7772 232.815 28.8587 226.648 28.8587C226.123 28.8587 225.861 27.2843 225.861 25.5786C225.861 23.8729 226.123 22.0361 226.648 22.0361C234.652 22.0361 242.655 22.5609 250.659 22.5609H251.839C258.793 22.4297 264.435 22.0361 274.144 22.0361C295.006 22.0361 306.683 29.9084 306.683 43.9473C306.683 56.2805 299.073 67.8266 284.509 71.5003V71.7627C293.3 72.6812 312.981 75.0429 312.981 96.4293C312.981 115.716 295.531 127 274.144 127C264.435 127 258.662 126.606 251.708 126.475H250.921C242.786 126.475 234.783 127 226.648 127ZM257.612 67.6954H263.779C284.509 67.6954 291.463 59.4295 291.463 48.2771C291.463 39.4863 288.314 30.302 265.485 30.302C260.761 30.302 258.006 32.4013 258.006 34.7629C257.744 45.9154 257.612 56.9366 257.612 67.6954ZM272.439 118.734C292.25 118.734 296.974 105.482 296.974 97.8725C296.974 80.8159 280.836 76.4861 263.254 76.4861H257.612C257.612 88.9506 258.006 101.546 258.006 114.011C258.006 117.553 262.598 118.734 272.439 118.734ZM378.672 128.968C352.563 128.968 339.442 112.699 339.311 87.6385V35.0254C338.786 29.7772 328.552 28.8587 322.386 28.8587C321.861 28.8587 321.598 27.2843 321.598 25.5786C321.598 23.8729 321.861 22.0361 322.386 22.0361C330.52 22.0361 338.786 22.5609 346.396 22.5609C354.531 22.5609 362.665 22.0361 370.8 22.0361C371.325 22.0361 371.587 23.8729 371.587 25.5786C371.587 27.2843 371.325 28.8587 370.8 28.8587C364.634 28.8587 354.4 29.7772 354.006 35.0254V72.2875C354.006 101.809 357.417 118.209 380.772 118.209C400.19 118.209 407.406 104.17 407.406 83.7024V35.0254C406.882 29.7772 396.648 28.8587 390.481 28.8587C389.956 28.8587 389.694 27.2843 389.694 25.5786C389.694 23.8729 389.956 22.0361 390.481 22.0361C397.828 22.0361 405.045 22.5609 412.392 22.5609C419.74 22.5609 427.218 22.0361 434.566 22.0361C435.091 22.0361 435.353 23.8729 435.353 25.5786C435.353 27.2843 435.091 28.8587 434.566 28.8587C428.399 28.8587 418.165 29.7772 417.772 35.0254V83.8336C417.772 112.174 405.701 128.968 378.672 128.968ZM445.36 127C444.836 127 444.573 125.163 444.573 123.457C444.573 121.752 444.836 120.177 445.36 120.177C451.527 120.177 462.023 119.259 462.155 114.011C462.417 100.89 462.548 87.6385 462.548 74.518C462.548 61.3975 462.417 48.1458 462.155 35.0254C462.023 29.7772 451.527 28.8587 445.36 28.8587C444.836 28.8587 444.573 27.2843 444.573 25.5786C444.573 23.8729 444.836 22.0361 445.36 22.0361C453.364 22.0361 461.367 22.5609 469.371 22.5609C477.374 22.5609 485.509 22.0361 493.513 22.0361C494.037 22.0361 494.3 23.8729 494.3 25.5786C494.3 27.2843 494.037 28.8587 493.513 28.8587C487.346 28.8587 476.85 29.7772 476.718 35.0254C476.456 48.1458 476.325 61.3975 476.325 74.518C476.325 87.6385 476.456 100.89 476.718 114.011C476.85 119.259 487.346 120.177 493.513 120.177C494.037 120.177 494.3 121.752 494.3 123.457C494.3 125.163 494.037 127 493.513 127C485.64 127 477.506 126.475 469.633 126.475C461.499 126.475 453.495 127 445.36 127ZM566.382 127.131C562.445 127.131 558.378 127.131 554.18 127C550.243 127 540.403 126.475 531.087 126.475C524.527 126.475 510.882 127 506.027 127C505.503 127 505.24 125.163 505.24 123.457C505.24 121.752 505.503 120.177 506.027 120.177C512.194 120.177 522.69 119.259 522.822 114.011C523.084 100.89 523.215 87.6385 523.215 74.518C523.215 61.3975 523.084 48.1458 522.822 35.0254C522.69 29.7772 512.194 28.8587 506.027 28.8587C505.503 28.8587 505.24 27.2843 505.24 25.5786C505.24 23.8729 505.503 22.0361 506.027 22.0361C514.031 22.0361 522.034 22.5609 530.038 22.5609C538.041 22.5609 546.176 22.0361 554.18 22.0361C554.704 22.0361 554.967 23.8729 554.967 25.5786C554.967 27.2843 554.704 28.8587 554.18 28.8587C548.013 28.8587 537.517 29.7772 537.385 35.0254C537.123 48.1458 536.992 61.3975 536.992 74.518C536.992 87.6385 537.123 100.89 537.385 114.011C537.385 120.309 550.899 119.784 557.984 119.784C572.155 119.784 585.013 114.142 588.686 94.1988C588.686 93.4115 590.523 93.0179 592.36 93.0179C594.197 93.0179 595.903 93.4115 595.772 94.1988C593.41 108.5 591.573 120.965 591.048 127C582.52 127 574.516 127.131 566.382 127.131ZM605.389 127C604.865 127 604.602 125.163 604.602 123.457C604.602 121.752 604.865 120.177 605.389 120.177C611.556 120.177 622.052 119.259 622.184 114.011C622.446 100.89 622.577 87.6385 622.577 74.518C622.577 61.3975 622.446 48.1458 622.184 35.0254C622.052 29.7772 611.556 28.8587 605.389 28.8587C604.865 28.8587 604.602 27.2843 604.602 25.5786C604.602 23.8729 604.865 22.0361 605.389 22.0361C613.393 22.0361 621.396 22.5609 629.4 22.5609C637.403 22.5609 645.538 22.0361 653.542 22.0361C687.393 22.0361 708.779 42.2416 708.779 74.3868C708.779 103.777 689.229 127 656.822 127C648.162 127 632.418 126.475 629.662 126.475C621.528 126.475 613.524 127 605.389 127ZM642.914 118.34C672.96 118.34 693.034 109.681 693.034 74.3868C693.034 39.0927 672.96 30.6956 642.914 30.6956C639.109 30.6956 636.747 32.6637 636.747 35.0254C636.485 48.1458 636.354 61.3975 636.354 74.518C636.354 87.6385 636.485 100.89 636.747 114.011C636.747 116.635 639.503 118.34 642.914 118.34Z" fill="black"/>
<path d="M753.191 0L758.847 17.4068H777.15L762.343 28.1648L767.998 45.5716L753.191 34.8136L738.384 45.5716L744.04 28.1648L729.233 17.4068H747.536L753.191 0Z" fill="black"/>
</svg>
